# Rhino

mtllib final_object file279401_116050.mtl
g 115900000000000003110205
v 952186.897694027 1944337.2088305831 112.5
v 952198.0342697259 1944339.2014886022 112.5
v 952186.508846676 1944339.4505683065 112.5
v 952186.508846676 1944339.4505683065 112.5
v 952198.0342697259 1944339.2014886022 112.5
v 952197.6454223748 1944341.3809558034 112.5
v 952186.508846676 1944339.4505683065 112.5
v 952186.5088471528 1944339.440961945 109.0
v 952186.897694027 1944337.2088305831 112.5
v 952186.897694027 1944337.2088305831 112.5
v 952186.5088471528 1944339.440961945 109.0
v 952186.897694027 1944337.200999248 109.5
v 952186.897694027 1944337.2088305831 112.5
v 952186.897694027 1944337.200999248 109.5
v 952198.0342697259 1944339.2014886022 112.5
v 952198.0342697259 1944339.2014886022 112.5
v 952186.897694027 1944337.200999248 109.5
v 952198.0342697259 1944339.1976536394 111.0
v 952198.0342697259 1944339.2014886022 112.5
v 952198.0342697259 1944339.1976536394 111.0
v 952197.6454223748 1944341.3761678815 111.0
v 952198.0342697259 1944339.2014886022 112.5
v 952197.6454223748 1944341.3761678815 111.0
v 952197.6454223748 1944341.3809558034 112.5
v 952197.6454223748 1944341.3809558034 112.5
v 952197.6454223748 1944341.3761678815 111.0
v 952186.5088471528 1944339.440961945 109.0
v 952197.6454223748 1944341.3809558034 112.5
v 952186.5088471528 1944339.440961945 109.0
v 952186.508846676 1944339.4505683065 112.5
v 952188.390865719 1944337.5816423774 112.0
v 952189.697391903 1944330.482806313 112.0
v 952190.9261479732 1944338.0175362707 112.0
v 952190.9261479732 1944338.0175362707 112.0
v 952189.697391903 1944330.482806313 112.0
v 952192.2326734718 1944330.98097049 112.0
v 952190.9261479732 1944338.0175362707 112.0
v 952190.9261479732 1944338.0106798292 110.0
v 952188.3908661958 1944337.5740498186 109.5
v 952190.9261479732 1944338.0175362707 112.0
v 952188.3908661958 1944337.5740498186 109.5
v 952188.390865719 1944337.5816423774 112.0
v 952188.390865719 1944337.5816423774 112.0
v 952188.3908661958 1944337.5740498186 109.5
v 952189.697391903 1944330.482806313 112.0
v 952189.697391903 1944330.482806313 112.0
v 952188.3908661958 1944337.5740498186 109.5
v 952189.697391903 1944330.477846253 110.5
v 952189.697391903 1944330.482806313 112.0
v 952189.697391903 1944330.477846253 110.5
v 952192.2326734718 1944330.98097049 112.0
v 952192.2326734718 1944330.98097049 112.0
v 952189.697391903 1944330.477846253 110.5
v 952192.2326735016 1944330.9766183973 110.5
v 952192.2326734718 1944330.98097049 112.0
v 952192.2326735016 1944330.9766183973 110.5
v 952190.9261479732 1944338.0106798292 110.0
v 952192.2326734718 1944330.98097049 112.0
v 952190.9261479732 1944338.0106798292 110.0
v 952190.9261479732 1944338.0175362707 112.0
v 952197.3965605851 1944339.0809188962 114.0
v 952190.0706845876 1944337.773236978 114.0
v 952193.6947380658 1944338.3988984704 115.0
v 952190.0706845876 1944337.773236978 114.0
v 952191.3461026307 1944330.7366710783 114.0
v 952194.8612786885 1944331.3623214841 115.0
v 952190.0706845876 1944337.773236978 114.0
v 952194.8612786885 1944331.3623214841 115.0
v 952193.6947380658 1944338.3988984704 115.0
v 952191.3461026307 1944330.7366710783 114.0
v 952198.6564249154 1944332.044353354 114.0
v 952194.8612786885 1944331.3623214841 115.0
v 952198.6564249154 1944332.044353354 114.0
v 952197.3965605851 1944339.0809188962 114.0
v 952194.8612786885 1944331.3623214841 115.0
v 952194.8612786885 1944331.3623214841 115.0
v 952197.3965605851 1944339.0809188962 114.0
v 952193.6947380658 1944338.3988984704 115.0
v 952190.0706845876 1944337.773236978 114.0
v 952190.0706845876 1944337.761383164 109.5
v 952191.3461026307 1944330.7366710783 114.0
v 952191.3461026307 1944330.7366710783 114.0
v 952190.0706845876 1944337.761383164 109.5
v 952191.3461025115 1944330.7272745252 110.5
v 952191.3461026307 1944330.7366710783 114.0
v 952191.3461025115 1944330.7272745252 110.5
v 952198.6564249154 1944332.044353354 114.0
v 952198.6564249154 1944332.044353354 114.0
v 952191.3461025115 1944330.7272745252 110.5
v 952198.6564249154 1944332.037051785 111.5
v 952198.6564249154 1944332.044353354 114.0
v 952198.6564249154 1944332.037051785 111.5
v 952197.3965605851 1944339.0724536062 111.0
v 952198.6564249154 1944332.044353354 114.0
v 952197.3965605851 1944339.0724536062 111.0
v 952197.3965605851 1944339.0809188962 114.0
v 952197.3965605851 1944339.0809188962 114.0
v 952197.3965605851 1944339.0724536062 111.0
v 952190.0706845876 1944337.761383164 109.5
v 952197.3965605851 1944339.0809188962 114.0
v 952190.0706845876 1944337.761383164 109.5
v 952190.0706845876 1944337.773236978 114.0
vt 0.40138059854507446 0.4224104881286621
vt 0.7877122759819031 0.42245984077453613
vt 0.40136054158210754 0.302768349647522
vt 0.40136054158210754 0.302768349647522
vt 0.7877122759819031 0.42245984077453613
vt 0.7877365350723267 0.302768349647522
vt 0.3863759934902191 0.7647058963775635
vt 0.3863759934902191 0.5823701024055481
vt 0.4624749422073364 0.7647058963775635
vt 0.4624749422073364 0.7647058963775635
vt 0.3863759934902191 0.5823701024055481
vt 0.4624749422073364 0.6160648465156555
vt 0.4624749422073364 0.7647058963775635
vt 0.4624749422073364 0.6160648465156555
vt 0.848806619644165 0.7647058963775635
vt 0.848806619644165 0.7647058963775635
vt 0.4624749422073364 0.6160648465156555
vt 0.848806619644165 0.6919103860855103
vt 0.848806619644165 0.7647058963775635
vt 0.848806619644165 0.6919103860855103
vt 0.9249368906021118 0.6738220453262329
vt 0.848806619644165 0.7647058963775635
vt 0.9249368906021118 0.6738220453262329
vt 0.9249368906021118 0.7647058963775635
vt 0.0 0.7647058963775635
vt 0.0 0.6738220453262329
vt 0.3863759934902191 0.5823701024055481
vt 0.0 0.7647058963775635
vt 0.3863759934902191 0.5823701024055481
vt 0.3863759934902191 0.7647058963775635
vt 0.9151875972747803 0.5721924901008606
vt 0.6700680255889893 0.5720755457878113
vt 0.9152217507362366 0.4336639642715454
vt 0.9152217507362366 0.4336639642715454
vt 0.6700680255889893 0.5720755457878113
vt 0.6700680255889893 0.43366503715515137
vt 0.42126786708831787 0.5721924901008606
vt 0.42126786708831787 0.442050576210022
vt 0.33315613865852356 0.42808210849761963
vt 0.42126786708831787 0.5721924901008606
vt 0.33315613865852356 0.42808210849761963
vt 0.33315613865852356 0.5721924901008606
vt 0.33315613865852356 0.5721924901008606
vt 0.33315613865852356 0.42808210849761963
vt 0.08803659677505493 0.5721924901008606
vt 0.08803659677505493 0.5721924901008606
vt 0.33315613865852356 0.42808210849761963
vt 0.08803659677505493 0.4780452251434326
vt 0.08803659677505493 0.5721924901008606
vt 0.08803659677505493 0.4780452251434326
vt 0.0 0.5721924901008606
vt 0.0 0.5721924901008606
vt 0.08803659677505493 0.4780452251434326
vt 0.0 0.48958534002304077
vt 0.6664215326309204 0.5721924901008606
vt 0.6664215326309204 0.48958534002304077
vt 0.42126786708831787 0.442050576210022
vt 0.6664215326309204 0.5721924901008606
vt 0.42126786708831787 0.442050576210022
vt 0.42126786708831787 0.5721924901008606
vt 0.040788985788822174 0.01503908634185791
vt 0.040788985788822174 0.41443848609924316
vt 0.005102040711790323 0.21674084663391113
vt 0.2602040767669678 0.03048408031463623
vt 0.2611132562160492 0.4124164581298828
vt 0.3879886865615845 0.41443848609924316
vt 0.2602040767669678 0.03048408031463623
vt 0.3879886865615845 0.41443848609924316
vt 0.39091557264328003 0.03048408031463623
vt 0.05612244829535484 0.41443848609924316
vt 0.05612244829535484 0.01504749059677124
vt 0.09170884639024734 0.22296077013015747
vt 0.2440786510705948 0.4116499423980713
vt 0.2440786510705948 0.029730796813964844
vt 0.1071428582072258 0.41443848609924316
vt 0.1071428582072258 0.41443848609924316
vt 0.2440786510705948 0.029730796813964844
vt 0.11091656237840652 0.030502736568450928
vt 0.2540397346019745 1.0
vt 0.2540397346019745 0.7750055193901062
vt 0.4969716966152191 1.0
vt 0.4969716966152191 1.0
vt 0.2540397346019745 0.7750055193901062
vt 0.4969716966152191 0.8216453194618225
vt 0.4969716966152191 1.0
vt 0.4969716966152191 0.8216453194618225
vt 0.7510060667991638 1.0
vt 0.7510060667991638 1.0
vt 0.4969716966152191 0.8216453194618225
vt 0.7510060667991638 0.8614153265953064
vt 0.7510060667991638 1.0
vt 0.7510060667991638 0.8614153265953064
vt 0.9939281344413757 0.8393197655677795
vt 0.7510060667991638 1.0
vt 0.9939281344413757 0.8393197655677795
vt 0.9939281344413757 1.0
vt 0.0 1.0
vt 0.0 0.8393197655677795
vt 0.2540397346019745 0.7750055193901062
vt 0.0 1.0
vt 0.2540397346019745 0.7750055193901062
vt 0.2540397346019745 1.0
vn 0.47140705585479736 0.6263933777809143 -0.6050251722335815
vn 0.47140705585479736 0.6263933777809143 -0.6050251722335815
vn 0.47140705585479736 0.6263933777809143 -0.6050251722335815
vn 0.4715794622898102 0.6266224384307861 -0.6052466034889221
vn 0.4715794622898102 0.6266224384307861 -0.6052466034889221
vn 0.4715794622898102 0.6266224384307861 -0.6052466034889221
vn 0.8468289971351624 -0.5067988634109497 0.1350017935037613
vn 0.8468289971351624 -0.5067988634109497 0.1350017935037613
vn 0.8468289971351624 -0.5067988634109497 0.1350017935037613
vn 0.8413692712783813 -0.5035313367843628 0.13413143157958984
vn 0.8413692712783813 -0.5035313367843628 0.13413143157958984
vn 0.8413692712783813 -0.5035313367843628 0.13413143157958984
vn 0.22041425108909607 0.5844483971595764 0.7768540382385254
vn 0.22041425108909607 0.5844483971595764 0.7768540382385254
vn 0.22041425108909607 0.5844483971595764 0.7768540382385254
vn 0.22041381895542145 0.5844472646713257 0.7768524885177612
vn 0.22041381895542145 0.5844472646713257 0.7768524885177612
vn 0.22041381895542145 0.5844472646713257 0.7768524885177612
vn -0.8435974717140198 0.5014355778694153 -0.13803736865520477
vn -0.8435974717140198 0.5014355778694153 -0.13803736865520477
vn -0.8435974717140198 0.5014355778694153 -0.13803736865520477
vn -0.8471074104309082 0.5035218596458435 -0.13861170411109924
vn -0.8471074104309082 0.5035218596458435 -0.13861170411109924
vn -0.8471074104309082 0.5035218596458435 -0.13861170411109924
vn -0.22427430748939514 -0.5798196196556091 -0.7750686407089233
vn -0.22427430748939514 -0.5798196196556091 -0.7750686407089233
vn -0.22427430748939514 -0.5798196196556091 -0.7750686407089233
vn -0.2242555320262909 -0.5797710418701172 -0.7750037908554077
vn -0.2242555320262909 -0.5797710418701172 -0.7750037908554077
vn -0.2242555320262909 -0.5797710418701172 -0.7750037908554077
vn 0.4734220504760742 0.6290746927261353 -0.6076135039329529
vn 0.4734220504760742 0.6290746927261353 -0.6076135039329529
vn 0.4734220504760742 0.6290746927261353 -0.6076135039329529
vn 0.4734863042831421 0.6291547417640686 -0.6076933741569519
vn 0.4734863042831421 0.6291547417640686 -0.6076933741569519
vn 0.4734863042831421 0.6291547417640686 -0.6076933741569519
vn -0.22476468980312347 -0.5774312615394592 -0.7729778289794922
vn -0.22476468980312347 -0.5774312615394592 -0.7729778289794922
vn -0.22476468980312347 -0.5774312615394592 -0.7729778289794922
vn -0.22497841715812683 -0.5779803395271301 -0.7737128734588623
vn -0.22497841715812683 -0.5779803395271301 -0.7737128734588623
vn -0.22497841715812683 -0.5779803395271301 -0.7737128734588623
vn 0.8460009098052979 -0.49897199869155884 0.14246056973934174
vn 0.8460009098052979 -0.49897199869155884 0.14246056973934174
vn 0.8460009098052979 -0.49897199869155884 0.14246056973934174
vn 0.8435533046722412 -0.49752840399742126 0.1420484036207199
vn 0.8435533046722412 -0.49752840399742126 0.1420484036207199
vn 0.8435533046722412 -0.49752840399742126 0.1420484036207199
vn 0.20568247139453888 0.5919600129127502 0.7731544375419617
vn 0.20568247139453888 0.5919600129127502 0.7731544375419617
vn 0.20568247139453888 0.5919600129127502 0.7731544375419617
vn 0.20591676235198975 0.5926343202590942 0.7740351557731628
vn 0.20591676235198975 0.5926343202590942 0.7740351557731628
vn 0.20591676235198975 0.5926343202590942 0.7740351557731628
vn -0.8468656539916992 0.49835917353630066 -0.143768772482872
vn -0.8468656539916992 0.49835917353630066 -0.143768772482872
vn -0.8468656539916992 0.49835917353630066 -0.143768772482872
vn -0.8490198850631714 0.49962690472602844 -0.14413446187973022
vn -0.8490198850631714 0.49962690472602844 -0.14413446187973022
vn -0.8490198850631714 0.49962690472602844 -0.14413446187973022
vn -0.20991764962673187 -0.5697790384292603 -0.7906621694564819
vn -0.20991764962673187 -0.5697790384292603 -0.7906621694564819
vn -0.20991764962673187 -0.5697790384292603 -0.7906621694564819
vn 0.688503623008728 0.4618677794933319 -0.5418229699134827
vn 0.688503623008728 0.4618677794933319 -0.5418229699134827
vn 0.688503623008728 0.4618677794933319 -0.5418229699134827
vn 0.6835305690765381 0.46456754207611084 -0.5469815135002136
vn 0.6835305690765381 0.46456754207611084 -0.5469815135002136
vn 0.6835305690765381 0.46456754207611084 -0.5469815135002136
vn 0.21773682534694672 0.5808398127555847 0.7804349064826965
vn 0.21773682534694672 0.5808398127555847 0.7804349064826965
vn 0.21773682534694672 0.5808398127555847 0.7804349064826965
vn 0.23649053275585175 0.7373219132423401 -0.6220679879188538
vn 0.23649053275585175 0.7373219132423401 -0.6220679879188538
vn 0.23649053275585175 0.7373219132423401 -0.6220679879188538
vn 0.23033571243286133 0.7409694790840149 -0.617975115776062
vn 0.23033571243286133 0.7409694790840149 -0.617975115776062
vn 0.23033571243286133 0.7409694790840149 -0.617975115776062
vn 0.8476947546005249 -0.5019014477729797 0.1407470852136612
vn 0.8476947546005249 -0.5019014477729797 0.1407470852136612
vn 0.8476947546005249 -0.5019014477729797 0.1407470852136612
vn 0.8445547223091125 -0.5000422596931458 0.14022573828697205
vn 0.8445547223091125 -0.5000422596931458 0.14022573828697205
vn 0.8445547223091125 -0.5000422596931458 0.14022573828697205
vn 0.21915306150913239 0.5809782147407532 0.7722784876823425
vn 0.21915306150913239 0.5809782147407532 0.7722784876823425
vn 0.21915306150913239 0.5809782147407532 0.7722784876823425
vn 0.21972575783729553 0.5824964642524719 0.7742966413497925
vn 0.21972575783729553 0.5824964642524719 0.7742966413497925
vn 0.21972575783729553 0.5824964642524719 0.7742966413497925
vn -0.8461480736732483 0.5025143027305603 -0.13890747725963593
vn -0.8461480736732483 0.5025143027305603 -0.13890747725963593
vn -0.8461480736732483 0.5025143027305603 -0.13890747725963593
vn -0.8447408676147461 0.5016786456108093 -0.1386764794588089
vn -0.8447408676147461 0.5016786456108093 -0.1386764794588089
vn -0.8447408676147461 0.5016786456108093 -0.1386764794588089
vn -0.2202189415693283 -0.5827945470809937 -0.7749894857406616
vn -0.2202189415693283 -0.5827945470809937 -0.7749894857406616
vn -0.2202189415693283 -0.5827945470809937 -0.7749894857406616
vn -0.2207818627357483 -0.5842841863632202 -0.7769704461097717
vn -0.2207818627357483 -0.5842841863632202 -0.7769704461097717
vn -0.2207818627357483 -0.5842841863632202 -0.7769704461097717
usemtl 115900000000000003110205
f 1/1/1 3/3/3 2/2/2
f 4/4/4 6/6/6 5/5/5
f 7/7/7 9/9/9 8/8/8
f 10/10/10 12/12/12 11/11/11
f 13/13/13 15/15/15 14/14/14
f 16/16/16 18/18/18 17/17/17
f 19/19/19 21/21/21 20/20/20
f 22/22/22 24/24/24 23/23/23
f 25/25/25 27/27/27 26/26/26
f 28/28/28 30/30/30 29/29/29
f 31/31/31 33/33/33 32/32/32
f 34/34/34 36/36/36 35/35/35
f 37/37/37 39/39/39 38/38/38
f 40/40/40 42/42/42 41/41/41
f 43/43/43 45/45/45 44/44/44
f 46/46/46 48/48/48 47/47/47
f 49/49/49 51/51/51 50/50/50
f 52/52/52 54/54/54 53/53/53
f 55/55/55 57/57/57 56/56/56
f 58/58/58 60/60/60 59/59/59
f 61/61/61 63/63/63 62/62/62
f 64/64/64 66/66/66 65/65/65
f 67/67/67 69/69/69 68/68/68
f 70/70/70 72/72/72 71/71/71
f 73/73/73 75/75/75 74/74/74
f 76/76/76 78/78/78 77/77/77
f 79/79/79 81/81/81 80/80/80
f 82/82/82 84/84/84 83/83/83
f 85/85/85 87/87/87 86/86/86
f 88/88/88 90/90/90 89/89/89
f 91/91/91 93/93/93 92/92/92
f 94/94/94 96/96/96 95/95/95
f 97/97/97 99/99/99 98/98/98
f 100/100/100 102/102/102 101/101/101
